/* XPM */
static char *_513899187207[] = {
/* columns rows colors chars-per-pixel */
"32 32 32 1 ",
"  c white",
". c #FFCCCC",
"X c #FFCC99",
"o c #FF9999",
"O c #FF9966",
"+ c #FF9900",
"@ c #FF6600",
"# c #FF3333",
"$ c red",
"% c #993333",
"& c #993300",
"* c #990000",
"= c green",
"- c #006600",
"; c #880000",
": c #00BB00",
"> c #00AA00",
", c #005500",
"< c #000011",
"1 c black",
"2 c None",
"3 c #6600F4",
"4 c #FF66F1",
"5 c #33FFD4",
"6 c #FF66EC",
"7 c #00CCEA",
"8 c #FF66F1",
"9 c #FF99D4",
"0 c #FF66EC",
"q c #CC66E9",
"w c #FF66CF",
"e c #9933CE",
/* pixels */
"22222222222222222222222222222222",
"22222222221111122222222222222222",
"2222222221=:1=>12222222222222222",
"222222221=    >-1222222222222222",
"222222221      -1112222222222222",
"222222221 1 1   1+#1222222222222",
"222222111 1 1   11&1222222222222",
"222221===1 -   -==11112222222222",
"22221=  ==-=,--= =:1+12222222222",
"222211 1===>=   ==>1#&1222222222",
"2221=======>>    >-1&%1222222222",
"2221======>:,    >-1<12222222222",
"2221>===>>:,-o  o--1122222222222",
"2221:>>>>>----oo--1#122222222222",
"22221>>:--,-11o--111222222222222",
"2222211----1 oO>-1#1222222222222",
"222222211111oooo>-11111222222222",
"2222222222221   >-111 +122222222",
"2222222222221   ====11++11222222",
"2222222222221    1==>>11 1112222",
"2222222222221     1====11>=12222",
"2222222222221    1=  ===1- 12222",
"22222222222211   11  ==>1  12222",
"22222222222221   1====>-1X122222",
"222222222222221X  1>>>-1 .122222",
"222222222222221oX.X1111111222222",
"222222222222222111oo1++$*1222222",
"22222222222222111$111+@$*1222222",
"22222222222221 ++$*1+ $*;*122222",
"22222222222221+$$*;1+++$**122222",
"22222222222221111111111111122222",
"22222222222222222222222222222222"
};
